<svg xmlns="http://www.w3.org/2000/svg" viewBox="0 0 1200 520" role="img" aria-label="Fundamentos de auditoría">
<defs><linearGradient id="bg" x1="0" x2="1"><stop stop-color="#071f36"/><stop offset="1" stop-color="#0b5ea8"/></linearGradient><filter id="sh"><feDropShadow dx="0" dy="10" stdDeviation="12" flood-opacity=".18"/></filter></defs>
<rect width="1200" height="520" rx="28" fill="url(#bg)"/><circle cx="1040" cy="80" r="180" fill="#fff" opacity=".05"/><circle cx="1100" cy="430" r="260" fill="#fff" opacity=".04"/>
<text x="64" y="82" fill="#7fc4ff" font-family="Arial" font-size="22" font-weight="700" letter-spacing="3">FOCUS ACADEMY · ISO 19011</text>
<text x="64" y="135" fill="#fff" font-family="Arial" font-size="42" font-weight="800">Fundamentos de auditoría</text>
<text x="64" y="174" fill="#d5e9fa" font-family="Arial" font-size="22">Del requisito a una conclusión confiable</text>
<g transform="translate(80 235)" filter="url(#sh)"><rect width="1040" height="190" rx="22" fill="#fff"/><g font-family="Arial" text-anchor="middle"><g transform="translate(80 38)"><circle r="30" fill="#dcefff"/><text y="8" font-size="28">📘</text><text y="72" fill="#173a59" font-size="20" font-weight="700">CRITERIO</text><text y="99" fill="#66788a" font-size="15">Lo que debe cumplirse</text></g><path d="M190 76H275" stroke="#58a7df" stroke-width="6" stroke-linecap="round"/><path d="M265 65l18 11-18 11" fill="#58a7df"/><g transform="translate(350 38)"><circle r="30" fill="#e8f7ef"/><text y="8" font-size="28">🔎</text><text y="72" fill="#173a59" font-size="20" font-weight="700">EVIDENCIA</text><text y="99" fill="#66788a" font-size="15">Información verificable</text></g><path d="M460 76H545" stroke="#58a7df" stroke-width="6" stroke-linecap="round"/><path d="M535 65l18 11-18 11" fill="#58a7df"/><g transform="translate(620 38)"><circle r="30" fill="#fff4d6"/><text y="8" font-size="28">⚖️</text><text y="72" fill="#173a59" font-size="20" font-weight="700">EVALUACIÓN</text><text y="99" fill="#66788a" font-size="15">Comparación imparcial</text></g><path d="M730 76H815" stroke="#58a7df" stroke-width="6" stroke-linecap="round"/><path d="M805 65l18 11-18 11" fill="#58a7df"/><g transform="translate(900 38)"><circle r="30" fill="#fbe8ea"/><text y="8" font-size="28">✅</text><text y="72" fill="#173a59" font-size="20" font-weight="700">CONCLUSIÓN</text><text y="99" fill="#66788a" font-size="15">Decisión sustentada</text></g></g></g>
</svg>