<svg xmlns="http://www.w3.org/2000/svg" viewBox="0 0 1200 520" role="img" aria-label="Ejecución de la auditoría">
<defs><linearGradient id="bg" x1="0" x2="1"><stop stop-color="#071f36"/><stop offset="1" stop-color="#0b5ea8"/></linearGradient><filter id="sh"><feDropShadow dx="0" dy="10" stdDeviation="12" flood-opacity=".18"/></filter></defs>
<rect width="1200" height="520" rx="28" fill="url(#bg)"/><circle cx="1040" cy="80" r="180" fill="#fff" opacity=".05"/><circle cx="1100" cy="430" r="260" fill="#fff" opacity=".04"/>
<text x="64" y="82" fill="#7fc4ff" font-family="Arial" font-size="22" font-weight="700" letter-spacing="3">FOCUS ACADEMY · ISO 19011</text>
<text x="64" y="135" fill="#fff" font-family="Arial" font-size="42" font-weight="800">Ejecución de la auditoría</text>
<text x="64" y="174" fill="#d5e9fa" font-family="Arial" font-size="22">Preguntar, observar, verificar y corroborar</text>
<g transform="translate(80 220)" filter="url(#sh)"><rect width="1040" height="220" rx="22" fill="#fff"/><g transform="translate(55 35)"><rect width="250" height="150" rx="15" fill="#eaf4fb"/><circle cx="75" cy="62" r="32" fill="#77b7e3"/><path d="M40 128q35-55 70 0" fill="#77b7e3"/><rect x="128" y="38" width="88" height="16" rx="8" fill="#0b5ea8"/><rect x="128" y="70" width="68" height="12" rx="6" fill="#7da6c2"/><rect x="128" y="96" width="78" height="12" rx="6" fill="#7da6c2"/></g><g transform="translate(395 35)"><rect width="250" height="150" rx="15" fill="#eef8f1"/><path d="M48 125V55h150v70" fill="#b7dcc2"/><path d="M75 55V28h95v27" fill="#6ca77d"/><circle cx="95" cy="88" r="18" fill="#fff"/><circle cx="151" cy="88" r="18" fill="#fff"/></g><g transform="translate(735 35)"><rect width="250" height="150" rx="15" fill="#fff6df"/><rect x="48" y="28" width="154" height="105" rx="8" fill="#fff" stroke="#dbad43" stroke-width="4"/><path d="M72 58h105M72 82h85M72 106h96" stroke="#dbad43" stroke-width="8" stroke-linecap="round"/><path d="M42 46l12 12 22-28" fill="none" stroke="#3f8a55" stroke-width="7"/></g></g>
</svg>